# xmcd
#
# Track frame offsets: 
#        150
#        18920
#        36169
#        51608
#        72727
#        86313
#        103963
#        124492
#        142645
#        168416
#        191228
#        208774
#        225948
#        251244
#        272420
#        295243
#        317053
#        335030
#
# Disc length: 4729 seconds
#
# Revision: 2
# Processed by: cddbd v1.5.2PL0 Copyright (c) Steve Scherf et al.
# Submitted via: ExactAudioCopy v0.95b4
#
DISCID=16127712
DTITLE=Elton John - Just Like Belgium: The Definitive Hits
DYEAR=2007
DGENRE=Rave
TTITLE0=Just Like Belgium
TTITLE1=Candle In The Wind
TTITLE2=Blue Eyes
TTITLE3=I Guess That's Why They Call It The Blues
TTITLE4=I'm Still Standing
TTITLE5=Crocodile Rock
TTITLE6=Don't Go Breaking My Heart
TTITLE7=Your Song
TTITLE8=Nikita
TTITLE9=Sacrifice
TTITLE10=Daniel
TTITLE11=Sorry Seems To Be The Hardest Word
TTITLE12=Don't Let The Sun Go Down On Me
TTITLE13=Rocket Man
TTITLE14=Song For Guy
TTITLE15=Circle Of Life
TTITLE16=Can You Feel The Love Tonight?
TTITLE17=Tinderbox
EXTD=
EXTT0=
EXTT1=
EXTT2=
EXTT3=
EXTT4=
EXTT5=
EXTT6=
EXTT7=
EXTT8=
EXTT9=
EXTT10=
EXTT11=
EXTT12=
EXTT13=
EXTT14=
EXTT15=
EXTT16=
EXTT17=
PLAYORDER=
